# xmcd
# 
# Track frame offsets:
#     150
#     42552
#     74630
#     107517
#     138447
# 
# Disc length: 2339
# 
# Revision: 2
# Processed by: cddbd v1.5.2PL0 Copyright (c) Steve Scherf et al.
# Submitted via: BonkEnc v1.0.15
# 
DISCID=48092105
DTITLE=Lee Morgan - The Cooker
DYEAR=1957
DGENRE=Jazz
TTITLE0=A Night In Tunisia
TTITLE1=Heavy Dipper
TTITLE2=Just One Of Those Things
TTITLE3=Lover Man
TTITLE4=New-Ma
EXTD=YEAR: 1957
EXTT0=
EXTT1=
EXTT2=
EXTT3=
EXTT4=
PLAYORDER=
